<?xml version="1.0" standalone="no"?>
<!DOCTYPE svg PUBLIC "-//W3C//DTD SVG 20010904//EN"
 "http://www.w3.org/TR/2001/REC-SVG-20010904/DTD/svg10.dtd">
<svg version="1.0" xmlns="http://www.w3.org/2000/svg"
 width="512.000000pt" height="512.000000pt" viewBox="0 0 512.000000 512.000000"
 preserveAspectRatio="xMidYMid meet">
<metadata>
Created by potrace 1.14, written by Peter Selinger 2001-2017
</metadata>
<g transform="translate(0.000000,512.000000) scale(0.100000,-0.100000)"
fill="#000000" stroke="none">
<path d="M1732 4357 l-272 -272 0 -968 0 -967 -275 0 -275 0 0 496 c0 549 0
546 -64 585 -29 18 -57 19 -399 19 l-367 0 2 -1357 c3 -1288 4 -1361 22 -1413
62 -187 189 -314 376 -377 53 -17 143 -18 2098 -21 1175 -1 2042 1 2042 6 0 5
27 19 59 31 159 58 275 180 333 351 22 63 23 79 26 598 l3 532 -205 0 -206 0
0 975 c0 1074 3 1025 -62 1065 -32 19 -49 20 -562 20 -509 0 -530 -1 -561 -20
-61 -38 -60 -27 -63 -577 l-3 -503 -269 0 -270 0 0 758 0 757 -278 278 -277
277 -140 0 -140 0 -273 -273z m828 -697 l0 -140 -140 0 -140 0 0 140 0 140
140 0 140 0 0 -140z m1790 -410 l0 -140 -140 0 -140 0 0 140 0 140 140 0 140
0 0 -140z m-1790 -140 l0 -140 -140 0 -140 0 0 140 0 140 140 0 140 0 0 -140z
m1790 -410 l0 -140 -140 0 -140 0 0 140 0 140 140 0 140 0 0 -140z m-2060
-140 l0 -140 -140 0 -140 0 0 140 0 140 140 0 140 0 0 -140z m1370 -410 l0
-140 -140 0 -140 0 0 133 c0 74 3 137 7 140 3 4 66 7 140 7 l133 0 0 -140z
m-2200 -420 l0 -140 -140 0 -140 0 0 140 0 140 140 0 140 0 0 -140z m1928
-132 l3 -138 -141 0 -140 0 0 140 0 141 138 -3 137 -3 3 -137z m-2208 -418 l0
-141 -137 3 -138 3 -3 138 -3 137 141 0 140 0 0 -140z m1930 -410 l0 -140
-140 0 -140 0 0 140 0 140 140 0 140 0 0 -140z m-1650 -140 l0 -140 -140 0
-140 0 0 140 0 140 140 0 140 0 0 -140z"/>
</g>
</svg>
